<?xml version="1.0" encoding="utf-8"?>
<svg xmlns="http://www.w3.org/2000/svg" version="1.1" width="110px" height="110px" viewBox="-53 -3 106 106">
  <path d ="M0,0 A 50 50, 0, 0 0, 0 100" fill="none" stroke="#000000" stroke-width="6"/>
  <path d ="M0,0 A 50 50, 0, 1 1, 0 100" fill="none" stroke="#000000" stroke-width="6"/>

  <g id="rayons" fill="none" transform="translate(0 50)">
    <path d ="M0,0 L 0,50" fill="none" stroke="#000000" stroke-width="6"/>
    <path d ="M0,0 L 0,50" transform="rotate(45)" fill="none" stroke="#000000" stroke-width="6"/>
    <path d ="M0,0 L 0,50" transform="rotate(90)" fill="none" stroke="#000000" stroke-width="6"/>
    <path d ="M0,0 L 0,50" transform="rotate(135)" fill="none" stroke="#000000" stroke-width="6"/>
    <path d ="M0,0 L 0,50" transform="rotate(180)" fill="none" stroke="#000000" stroke-width="6"/>
    <path d ="M0,0 L 0,50" transform="rotate(225)" fill="none" stroke="#000000" stroke-width="6"/>
    <path d ="M0,0 L 0,50" transform="rotate(270)" fill="none" stroke="#000000" stroke-width="6"/>
    <path d ="M0,0 L 0,50" transform="rotate(315)" fill="none" stroke="#000000" stroke-width="6"/>
  </g>
</svg>
